<svg id="Vrstva_1" data-name="Vrstva 1" xmlns="http://www.w3.org/2000/svg" viewBox="0 0 302 302.04"><defs><style>.cls-1{fill:#fff;}</style></defs><path class="cls-1" d="M151,244.44a5.9,5.9,0,1,0,5.9,5.9A5.9,5.9,0,0,0,151,244.44Z"/><path class="cls-1" d="M276.69,11.05C262.17,3.93,243.3,0,223.55,0s-38.62,3.93-53.14,11.05c-8.57,4.22-15.12,9.35-19.41,15.14-4.29-5.75-10.84-10.92-19.41-15.14C117.07,3.93,98.2,0,78.45,0S39.83,3.93,25.31,11.05C9,19.07,0,30.47,0,43.15V215.74c0,12.68,9,24.08,25.31,32.1,13.5,6.63,30.77,10.48,49,11v.06c0,24.6,33,43.15,76.68,43.15s76.68-18.55,76.68-43.15v-.06c18.24-.51,35.51-4.36,49-11,16.32-8,25.31-19.42,25.31-32.1V43.15C302,30.47,293,19.07,276.69,11.05ZM290.2,172.59c0,6.15-6.86,13.33-17.92,18.76-12,5.87-28,9.43-44.6,9.94V172.52c18.24-.5,35.51-4.36,49-11a61.12,61.12,0,0,0,13.51-8.79ZM145.1,86.3c0,6.14-6.86,13.32-17.92,18.75-13,6.37-30.72,10-48.73,10s-35.77-3.64-48.73-10C18.66,99.62,11.8,92.44,11.8,86.3V66.44a61.17,61.17,0,0,0,13.51,8.8C39.83,82.37,58.7,86.3,78.45,86.3s38.62-3.93,53.14-11.06a61.4,61.4,0,0,0,13.51-8.8ZM25.31,118.39c14.52,7.13,33.39,11.06,53.14,11.06s38.62-3.93,53.14-11.06a61.77,61.77,0,0,0,13.51-8.8v20c-15.26.62-29.89,3.68-41.73,8.76S83,150.24,78.31,158.21c-18,0-35.66-3.67-48.59-10-11.06-5.43-17.92-12.61-17.92-18.75V109.59A61.53,61.53,0,0,0,25.31,118.39ZM11.8,152.74a61.53,61.53,0,0,0,13.51,8.8c13.5,6.63,30.77,10.49,49,11V201.3c-16.57-.52-32.64-4.07-44.6-9.94-11.06-5.44-17.92-12.62-17.92-18.77Zm74.94,16.32c4.37-12.4,29.6-25.23,64.26-25.23s59.89,12.83,64.25,25.22a10.27,10.27,0,0,1,.63,3.54c0,6.33-6.39,13.35-17.1,18.79-12.67,6.43-29.64,10-47.78,10s-35.11-3.55-47.78-10c-10.7-5.44-17.1-12.46-17.1-18.79a10.53,10.53,0,0,1,.62-3.53ZM290.2,129.45c0,6.14-6.86,13.32-17.92,18.75-12.93,6.34-30.63,10-48.59,10-4.64-8-13.19-14.77-25.06-19.87s-26.47-8.14-41.73-8.76v-20a61.77,61.77,0,0,0,13.51,8.8c14.52,7.13,33.39,11.06,53.14,11.06s38.62-3.93,53.14-11.06a61.53,61.53,0,0,0,13.51-8.8Zm0-43.15c0,6.14-6.86,13.32-17.92,18.75-13,6.37-30.72,10-48.73,10s-35.77-3.64-48.73-10C163.76,99.62,156.9,92.44,156.9,86.3V66.44a61.4,61.4,0,0,0,13.51,8.8c14.52,7.13,33.39,11.06,53.14,11.06s38.62-3.93,53.14-11.06a61.17,61.17,0,0,0,13.51-8.8ZM174.82,24.39c13-6.36,30.72-10,48.73-10s35.77,3.65,48.73,10C283.34,29.82,290.2,37,290.2,43.15s-6.86,13.32-17.92,18.75c-13,6.37-30.72,10-48.73,10s-35.77-3.64-48.73-10c-11.06-5.43-17.92-12.61-17.92-18.75S163.76,29.82,174.82,24.39Zm-145.1,0c13-6.36,30.72-10,48.73-10s35.77,3.65,48.73,10C138.24,29.82,145.1,37,145.1,43.15s-6.86,13.32-17.92,18.75c-13,6.37-30.72,10-48.73,10s-35.77-3.64-48.73-10C18.66,56.47,11.8,49.29,11.8,43.15s6.86-13.33,17.92-18.76Zm0,210.11c-11.06-5.43-17.92-12.62-17.92-18.76V195.89a61.53,61.53,0,0,0,13.51,8.8c13.5,6.63,30.77,10.48,49,11v28.76c-16.57-.51-32.64-4.07-44.6-9.94Zm169.07,43.15c-12.68,6.46-29.65,10-47.79,10s-35.11-3.55-47.78-10c-10.7-5.44-17.1-12.47-17.1-18.79V239.47A50.63,50.63,0,0,0,90.56,243c9.16,6.47,21.63,11.24,36.05,13.82a4.91,4.91,0,0,0,.86.08c3.26,0,5.89-3.25,5.88-7.22,0-3.55-2.15-6.56-5-7.09-27.41-4.93-42.2-17.48-42.2-26.83v-19.5c13.35,11.91,36.92,19.5,64.88,19.5s51.53-7.59,64.88-19.5v19.5c0,9.35-14.79,21.9-42.2,26.81-3.22.59-5.44,4.25-5,8.18.43,3.51,2.9,6.11,5.81,6.13a4.91,4.91,0,0,0,.86-.08c14.42-2.58,26.89-7.36,36.05-13.82a50.38,50.38,0,0,0,4.44-3.49v19.42c0,6.32-6.39,13.35-17.1,18.79Zm73.49-43.15c-12,5.87-28,9.43-44.59,9.94V215.67c18.23-.5,35.5-4.36,49-11a62,62,0,0,0,13.5-8.79v19.85c0,6.14-6.86,13.33-17.92,18.76Z"/></svg>