<svg id="Vrstva_1" data-name="Vrstva 1" xmlns="http://www.w3.org/2000/svg" viewBox="0 0 266.68 300.42"><defs><style>.cls-1{fill:#fff;}</style></defs><path class="cls-1" d="M231.42,246.48a4.83,4.83,0,0,0,1.79-3.74V24.79a4.79,4.79,0,0,0-4.8-4.79H89.71A27.15,27.15,0,0,0,37.8,20H22.46a4.79,4.79,0,0,0-4.8,4.79h0V296.43a4.8,4.8,0,0,0,4.8,4.8H174.68a4.81,4.81,0,0,0,3.77-1.79Zm-51.9,38.35V247.54h37.3ZM63.76,10.41A17.58,17.58,0,0,1,79.4,20H48.09A17.66,17.66,0,0,1,63.76,10.41ZM27.23,29.59H81.32V63.14a8,8,0,0,1-16,0V44a4.79,4.79,0,1,0-9.58,0V63.14a17.58,17.58,0,1,0,35.15,0V29.59H223.62V238h-48.9a4.79,4.79,0,0,0-4.79,4.79v48.9H27.23Z" transform="translate(-17.66 -0.81)"/><path class="cls-1" d="M190.06,221.65a4.79,4.79,0,1,0,0-9.58H60.79a4.79,4.79,0,1,0,0,9.58Z" transform="translate(-17.66 -0.81)"/><path class="cls-1" d="M60.79,192.89H190.06a4.8,4.8,0,1,0,0-9.59H60.79a4.8,4.8,0,1,0,0,9.59Z" transform="translate(-17.66 -0.81)"/><path class="cls-1" d="M60.79,164.13H190.06a4.8,4.8,0,1,0,0-9.59H60.79a4.8,4.8,0,1,0,0,9.59Z" transform="translate(-17.66 -0.81)"/><path class="cls-1" d="M60.79,135.37H190.06a4.8,4.8,0,1,0,0-9.59H60.79a4.8,4.8,0,1,0,0,9.59Z" transform="translate(-17.66 -0.81)"/><path class="cls-1" d="M60.79,106.6H190.06a4.79,4.79,0,1,0,0-9.58H60.79a4.79,4.79,0,1,0,0,9.58Z" transform="translate(-17.66 -0.81)"/><path class="cls-1" d="M254,20h-6.39a4.8,4.8,0,1,0,0,9.59h1.59V291.64H198a4.8,4.8,0,0,0,0,9.59h56a4.79,4.79,0,0,0,4.79-4.8h0V24.79A4.78,4.78,0,0,0,254,20Z" transform="translate(-17.66 -0.81)"/><path class="cls-1" d="M279.54,20h-6.39a4.8,4.8,0,0,0,0,9.59h1.6V291.64h-1.6a4.8,4.8,0,0,0,0,9.59h6.39a4.8,4.8,0,0,0,4.8-4.8h0V24.79a4.79,4.79,0,0,0-4.8-4.79Z" transform="translate(-17.66 -0.81)"/></svg>