<svg id="Vrstva_1" data-name="Vrstva 1" xmlns="http://www.w3.org/2000/svg" viewBox="0 0 302 302.04"><defs><style>.cls-1{fill:#fff;}</style></defs><path class="cls-1" d="M302,204.38a97.86,97.86,0,0,0-71.49-94.08A115.31,115.31,0,1,0,16,173.93L.42,230.2,56.7,214.64a115,115,0,0,0,53.6,15.87,97.62,97.62,0,0,0,143.75,57.92l47.53,13.15-13.15-47.53A97.2,97.2,0,0,0,302,204.38ZM59.49,195.5l-33.68,9.32,9.32-33.68L33,167.81a97.46,97.46,0,1,1,29.79,29.82Zm216.7,80.69-25-6.91-3.34,2.17a80,80,0,0,1-119.27-41.59A115.54,115.54,0,0,0,229.86,128.59a79.92,79.92,0,0,1,41.59,119.24l-2.17,3.34Z"/><path class="cls-1" d="M106.47,159.85h17.69v17.69H106.47Z"/><path class="cls-1" d="M133,88.48a17.52,17.52,0,0,1-5.76,13.06l-20.78,19v21.59h17.69V128.36l15-13.77A35.39,35.39,0,1,0,79.92,88.48h17.7a17.7,17.7,0,1,1,35.39,0Z"/></svg>