<svg id="Vrstva_1" data-name="Vrstva 1" xmlns="http://www.w3.org/2000/svg" xmlns:xlink="http://www.w3.org/1999/xlink" viewBox="0 0 703.96 703.96"><defs><style>.cls-1{fill:url(#Nepojmenovaný_přechod_90);}.cls-2{fill:url(#Nepojmenovaný_přechod_86);}.cls-3{fill:#2b005e;}.cls-4{fill:#fff;}.cls-5{fill:none;}</style><linearGradient id="Nepojmenovaný_přechod_90" x1="78.15" y1="566.01" x2="558.97" y2="566.01" gradientUnits="userSpaceOnUse"><stop offset="0" stop-color="#fc0"/><stop offset="0.21" stop-color="#fdc100"/><stop offset="0.57" stop-color="#f9a300"/><stop offset="1" stop-color="#f37800"/></linearGradient><linearGradient id="Nepojmenovaný_přechod_86" x1="125.51" y1="156.97" x2="628.3" y2="156.97" gradientUnits="userSpaceOnUse"><stop offset="0" stop-color="#fc0"/><stop offset="0.23" stop-color="#fec800"/><stop offset="0.45" stop-color="#fdbd00"/><stop offset="0.65" stop-color="#faab00"/><stop offset="0.85" stop-color="#f79100"/><stop offset="1" stop-color="#f37800"/></linearGradient></defs><path class="cls-1" d="M553.6,559.58q-2.94,3.17-5.92,6.3l-3,3.15c-1,1.06-2.06,2-3.09,3l-6.32,6c-.53.5-1,1-1.59,1.48L532,580.91l-3.3,2.83-3.3,2.83c-1.11.94-2.2,1.9-3.37,2.76l-6.91,5.31c-1.16.87-2.3,1.79-3.48,2.63l-3.6,2.47-7.2,5a286.87,286.87,0,0,1-63,30.58c-.7.24-1.39.5-2.08.73l-2.11.64-4.21,1.27c-2.82.84-5.61,1.76-8.45,2.51l-8.56,2.11-4.29,1.05c-1.43.33-2.88.58-4.32.87l-8.67,1.67-2.17.41-2.18.31-4.38.6c-2.92.39-5.83.84-8.75,1.17l-8.8.78a287.46,287.46,0,0,1-198.84-58.68,283.7,283.7,0,0,1-49.71-49.32,264.41,264.41,0,0,1-19.65-28.79l-2.22-3.74-2.09-3.81c-1.38-2.54-2.83-5.05-4.08-7.66s-2.6-5.16-3.79-7.79-2.37-5.27-3.52-7.9q2.31,3.65,4.58,7.32c1.51,2.44,3.17,4.8,4.74,7.19s3.23,4.74,4.87,7.09l2.47,3.5,2.59,3.43a319.91,319.91,0,0,0,46.29,49.89c4.26,3.73,8.65,7.28,13.06,10.79l6.75,5.11,6.88,4.91A304.73,304.73,0,0,0,236.38,613a296.5,296.5,0,0,0,64.54,18.23c5.51,1,11.08,1.65,16.63,2.33l8.37.77c2.79.26,5.59.34,8.39.54a310.18,310.18,0,0,0,100-11.18A319,319,0,0,0,497,598.21l7.42-4.2,3.72-2.1c1.22-.73,2.41-1.5,3.63-2.25l7.26-4.52c1.23-.73,2.38-1.58,3.56-2.37l3.55-2.41L529.7,578l1.78-1.21c.59-.41,1.15-.85,1.72-1.28l6.88-5.16c1.14-.86,2.34-1.67,3.44-2.59l3.35-2.71Q550.2,562.27,553.6,559.58Z"/><path class="cls-2" d="M131,147.41A277.81,277.81,0,0,1,257.35,65.55a292.19,292.19,0,0,1,37.36-9.06A300,300,0,0,1,333,52.66a273.94,273.94,0,0,1,38.53,1.09c6.42.51,12.78,1.52,19.15,2.44l9.5,1.72c1.59.26,3.15.63,4.72,1l4.72,1a299.78,299.78,0,0,1,36.94,11.18,307.31,307.31,0,0,1,35.07,16l8.42,4.7,8.23,5c1.38.82,2.72,1.71,4.05,2.6l4,2.68c1.32.9,2.68,1.77,4,2.71l3.89,2.83a277,277,0,0,1,29.53,24.6c37.11,35.28,64.36,80.6,77.22,129.26-19-46.54-48.19-88.07-85.39-120.3l-7-6-7.24-5.7c-2.41-1.9-4.93-3.66-7.38-5.49s-5-3.55-7.54-5.27l-3.8-2.58c-1.27-.85-2.59-1.63-3.89-2.45l-3.89-2.44c-1.29-.83-2.59-1.64-3.93-2.38l-7.95-4.6-8.12-4.27A296.14,296.14,0,0,0,406.15,75l-4.47-1c-1.49-.34-3-.7-4.48-1l-9-1.68c-6-.91-12.07-1.87-18.16-2.43l-4.56-.5c-1.52-.18-3.05-.23-4.57-.35-3-.19-6.1-.46-9.15-.58l-9.18-.26c-1.53-.07-3.06,0-4.59,0l-4.59.06c-12.25,0-24.45,1.25-36.62,2.65l-9.08,1.46-4.54.74c-1.52.24-3,.61-4.51.91l-9,1.89c-1.51.28-3,.71-4.47,1.09l-4.45,1.17-4.46,1.17c-.74.2-1.5.38-2.23.59l-2.2.69L243,82.35l-2.2.69c-.73.25-1.45.52-2.17.79l-4.34,1.59L229.94,87c-1.45.52-2.91,1-4.32,1.65-5.67,2.41-11.44,4.65-17,7.4-2.79,1.34-5.62,2.59-8.37,4l-8.21,4.36c-1.36.73-2.77,1.4-4.1,2.2L184,109c-2.66,1.59-5.37,3.13-8,4.76l-7.8,5.11c-1.3.86-2.62,1.69-3.91,2.57l-3.8,2.71-7.62,5.45-7.36,5.8-3.71,2.89-3.57,3.05Q134.61,144.37,131,147.41Z"/><path class="cls-3" d="M125.75,413.18a11.28,11.28,0,0,1-22.55,0V290.36H53.07V413.18a61.41,61.41,0,0,0,122.81,0V290.36H125.75Z"/><path class="cls-3" d="M145.8,203.14c-13.53-10.28-21.8-11-21.8-11L84.15,272.82l78.2-48.37S159.59,213.92,145.8,203.14Z"/><path class="cls-3" d="M296.51,425.21c-9.52-4.52-13.53-9-13.53-9,10.27-2.5,36.34-21.3,36.34-57.14,0-44.36-37.85-68.68-82.21-68.68H179v176.7h50.13V431.47c15.29,22.06,42.86,40.11,70.18,41.36l18.79-42.11S306.29,429.72,296.51,425.21ZM229.09,384.6V343.75c15.29-3.76,33.58,5,33.58,19.8C262.67,379.84,246.88,389.37,229.09,384.6Z"/><path class="cls-3" d="M300.58,472.88l55.17-1.07,13-27.82h56.14l12.78,27.82h54.64l-97.5-189Zm84-76.51,10.27-23.31,10,23.31Z"/><polygon class="cls-3" points="577.38 421.66 643.3 295.09 493.42 295.09 493.42 344.22 560.59 344.22 494.67 471.79 649.81 471.79 649.81 421.66 577.38 421.66"/><path class="cls-4" d="M249.34,496a13.67,13.67,0,0,0-4.3-3.24,12.49,12.49,0,0,0-10.62,0,14.11,14.11,0,0,0-4.3,3.22,15.1,15.1,0,0,0-2.9,4.77,16,16,0,0,0-1.07,5.86,15.73,15.73,0,0,0,1.07,5.8,15.18,15.18,0,0,0,2.9,4.74,14.11,14.11,0,0,0,4.3,3.22,12.09,12.09,0,0,0,5.29,1.19,12.23,12.23,0,0,0,5.33-1.19,13.76,13.76,0,0,0,4.3-3.22,15.32,15.32,0,0,0,2.88-4.74,16.14,16.14,0,0,0,1.05-5.8,16.37,16.37,0,0,0-1.05-5.85A15.42,15.42,0,0,0,249.34,496Zm-.66,10.61a10.61,10.61,0,0,1-.7,3.86,10.22,10.22,0,0,1-1.91,3.19,8.79,8.79,0,0,1-2.84,2.15,8.32,8.32,0,0,1-7,0,8.9,8.9,0,0,1-2.84-2.15,10.3,10.3,0,0,1-1.94-3.19,10.62,10.62,0,0,1-.71-3.86,10.85,10.85,0,0,1,.71-3.91,10.62,10.62,0,0,1,1.93-3.19,9.3,9.3,0,0,1,2.85-2.13,7.92,7.92,0,0,1,3.48-.78,8.06,8.06,0,0,1,3.52.78,8.91,8.91,0,0,1,2.84,2.13,10.18,10.18,0,0,1,1.91,3.19A10.84,10.84,0,0,1,248.68,506.65Z"/><path class="cls-4" d="M279,496a13.85,13.85,0,0,0-4.31-3.2,12.45,12.45,0,0,0-5.31-1.17,9.72,9.72,0,0,0-3.24.55,11.07,11.07,0,0,0-2.91,1.52,11.24,11.24,0,0,0-2.32,2.3q-.29.38-.54.78V483.77a2.67,2.67,0,0,0-.61-1.78,2.07,2.07,0,0,0-1.67-.78,2.11,2.11,0,0,0-1.65.76,2.64,2.64,0,0,0-.65,1.8v22.88a15.73,15.73,0,0,0,1.07,5.8,15.18,15.18,0,0,0,2.9,4.74,14.07,14.07,0,0,0,4.32,3.22,12.42,12.42,0,0,0,10.61,0A14,14,0,0,0,279,517.2a15.49,15.49,0,0,0,2.88-4.75,16.71,16.71,0,0,0,0-11.66A15.49,15.49,0,0,0,279,496Zm-3.27,17.66a9.2,9.2,0,0,1-2.85,2.15,8.31,8.31,0,0,1-7,0,9.13,9.13,0,0,1-2.86-2.15,10.85,10.85,0,0,1-1.93-11,10.3,10.3,0,0,1,1.93-3.18,8.89,8.89,0,0,1,2.86-2.12,8.34,8.34,0,0,1,7,0,9,9,0,0,1,2.85,2.12,10.23,10.23,0,0,1,1.92,3.18,11,11,0,0,1,.7,3.92,10.84,10.84,0,0,1-.7,3.87h0A10.57,10.57,0,0,1,275.76,513.7Z"/><path class="cls-4" d="M291.42,499.68a9,9,0,0,1,2.73-2.18,7.49,7.49,0,0,1,3.33-.83,8.18,8.18,0,0,1,2.46.31,7.63,7.63,0,0,1,2.31,1.14,7.06,7.06,0,0,1,.68.53c.25.22.51.44.76.63a5.24,5.24,0,0,0,.82.54,1.78,1.78,0,0,0,1.65.11,2.48,2.48,0,0,0,.75-.47,2.69,2.69,0,0,0,.58-.75,2.31,2.31,0,0,0,.25-1.07,3.08,3.08,0,0,0-.77-2,11.25,11.25,0,0,0-4.15-3,12.81,12.81,0,0,0-10.42.19,13.53,13.53,0,0,0-4.27,3.26,15.69,15.69,0,0,0-2.84,4.81,16.87,16.87,0,0,0-1,5.88,15.69,15.69,0,0,0,1.06,5.77,15.12,15.12,0,0,0,2.89,4.68,13.77,13.77,0,0,0,4.29,3.16,12.35,12.35,0,0,0,5.29,1.16,12.81,12.81,0,0,0,5-1,11.22,11.22,0,0,0,4.14-3,2.87,2.87,0,0,0,.78-2,2.28,2.28,0,0,0-.23-1,2.54,2.54,0,0,0-1.27-1.24,1.85,1.85,0,0,0-1.38-.08,3.54,3.54,0,0,0-.53.23l-.09.06a21.36,21.36,0,0,1-1.74,1.36,10.74,10.74,0,0,1-1.58.94,6.9,6.9,0,0,1-1.55.52,8.57,8.57,0,0,1-1.72.17,7.57,7.57,0,0,1-3.49-.81,8.65,8.65,0,0,1-2.77-2.18,10.44,10.44,0,0,1-1.82-3.19,11.24,11.24,0,0,1-.65-3.8,10.62,10.62,0,0,1,.66-3.73A10.17,10.17,0,0,1,291.42,499.68Z"/><path class="cls-4" d="M296.43,489.49a1.6,1.6,0,0,0,.72.51,3.68,3.68,0,0,0,.81.2,3,3,0,0,0,.56-.05,1.72,1.72,0,0,0,.68-.31l7.4-7.37a2.09,2.09,0,0,0,.66-1.51,2.16,2.16,0,0,0-.66-1.55,2.11,2.11,0,0,0-3.05,0L298,485l-5.54-5.6a2.15,2.15,0,0,0-3,0,2.07,2.07,0,0,0-.67,1.55,2.15,2.15,0,0,0,.69,1.51Z"/><path class="cls-4" d="M332.44,496a13.56,13.56,0,0,0-4.25-3.22,12.36,12.36,0,0,0-10.56,0,13.47,13.47,0,0,0-4.25,3.24,15.52,15.52,0,0,0-2.84,4.76,16.16,16.16,0,0,0-1.05,5.85,15.93,15.93,0,0,0,1.05,5.8,15.36,15.36,0,0,0,2.85,4.74,13.34,13.34,0,0,0,4.24,3.21,11.88,11.88,0,0,0,5.28,1.2,12.09,12.09,0,0,0,5.4-1.22,13.47,13.47,0,0,0,3.4-2.41v.86a2.79,2.79,0,0,0,.58,1.77,2,2,0,0,0,1.66.79,2.19,2.19,0,0,0,1.68-.76,2.62,2.62,0,0,0,.67-1.8V506.65a16.46,16.46,0,0,0-1-5.86A15.24,15.24,0,0,0,332.44,496Zm-.72,10.63a11.13,11.13,0,0,1-.67,3.87,10.5,10.5,0,0,1-1.86,3.19,8.86,8.86,0,0,1-2.8,2.14,8.2,8.2,0,0,1-6.95,0,8.93,8.93,0,0,1-2.79-2.14,10.42,10.42,0,0,1-1.89-3.2,10.82,10.82,0,0,1-.69-3.86,11.06,11.06,0,0,1,.69-3.91,10.31,10.31,0,0,1,1.88-3.19,9.09,9.09,0,0,1,2.8-2.13,7.77,7.77,0,0,1,3.46-.78,7.87,7.87,0,0,1,3.49.78,8.61,8.61,0,0,1,2.8,2.13,10.15,10.15,0,0,1,1.86,3.19A11.27,11.27,0,0,1,331.72,506.65Z"/><path class="cls-4" d="M361.45,495.84h0a12.58,12.58,0,0,0-4-3.09,11.69,11.69,0,0,0-10.07,0,12.72,12.72,0,0,0-4,3.1,14.41,14.41,0,0,0-2.65,4.58,16.37,16.37,0,0,0-.95,5.59v12.74a2.37,2.37,0,0,0,.71,1.78,2.24,2.24,0,0,0,1.63.69,2,2,0,0,0,1.63-.72,2.59,2.59,0,0,0,.61-1.75V506.06a11.1,11.1,0,0,1,.61-3.73,9.29,9.29,0,0,1,1.7-3,8,8,0,0,1,2.55-2,7.4,7.4,0,0,1,6.37,0,7.89,7.89,0,0,1,2.54,2,9.54,9.54,0,0,1,1.68,3,11.44,11.44,0,0,1,.6,3.73v12.63a2.45,2.45,0,0,0,.66,1.76,2.2,2.2,0,0,0,1.64.71,2.12,2.12,0,0,0,1.65-.72,2.51,2.51,0,0,0,.63-1.75V506a16.36,16.36,0,0,0-.94-5.59A14.4,14.4,0,0,0,361.45,495.84Z"/><path class="cls-4" d="M387.56,506.26a7.9,7.9,0,0,0-2.51-1.91,7.16,7.16,0,0,0-3.15-.7h-5.59a2.62,2.62,0,0,1-1.17-.28,3.36,3.36,0,0,1-1-.76,3.81,3.81,0,0,1-.68-1.12,3.93,3.93,0,0,1-.24-1.38,3.7,3.7,0,0,1,.24-1.31,3.84,3.84,0,0,1,.67-1.13,3.42,3.42,0,0,1,1-.78,2.64,2.64,0,0,1,1.19-.28h9.78a2.21,2.21,0,0,0,1.64-.7,2.57,2.57,0,0,0,.67-1.84,2.37,2.37,0,0,0-.68-1.79,2.31,2.31,0,0,0-1.63-.64h-9.75a7.1,7.1,0,0,0-3,.67,7.89,7.89,0,0,0-2.44,1.8,8.75,8.75,0,0,0-1.64,2.65,8.87,8.87,0,0,0-.6,3.23,9.52,9.52,0,0,0,.58,3.31,9.2,9.2,0,0,0,1.61,2.73,7.75,7.75,0,0,0,2.44,1.88,6.9,6.9,0,0,0,3.08.71h5.25a4.09,4.09,0,0,1,1.38.28,3.39,3.39,0,0,1,1.15.7,3.48,3.48,0,0,1,.81,1.14,3.86,3.86,0,0,1,.3,1.57,4,4,0,0,1-1.16,2.9,3.62,3.62,0,0,1-1.16.79,3.23,3.23,0,0,1-1.28.27H370.32a2,2,0,0,0-1.57.71,2.51,2.51,0,0,0-.6,1.73,2.72,2.72,0,0,0,.59,1.79,2,2,0,0,0,1.58.74H382a7,7,0,0,0,3.15-.72,7.7,7.7,0,0,0,2.49-1.93,9,9,0,0,0,1.63-2.8,9.77,9.77,0,0,0,.59-3.38,9.66,9.66,0,0,0-.59-3.36A9,9,0,0,0,387.56,506.26Z"/><path class="cls-4" d="M400.7,505.76l9.14-9.45a2.2,2.2,0,0,0,.71-1.75,2.52,2.52,0,0,0-.66-1.74,2.18,2.18,0,0,0-2.45-.61,2.23,2.23,0,0,0-.76.5l-9.14,9.47V483.85a2.56,2.56,0,0,0-.64-1.76,2.2,2.2,0,0,0-3.26,0,2.52,2.52,0,0,0-.68,1.78v34.92a2.47,2.47,0,0,0,.66,1.75,2.21,2.21,0,0,0,1.65.72,2.08,2.08,0,0,0,1.61-.73,2.45,2.45,0,0,0,.66-1.74v-9.41L408,520.42a2.18,2.18,0,0,0,3.32,0,2.62,2.62,0,0,0,.65-1.75,2.36,2.36,0,0,0-.62-1.62Z"/><path class="cls-4" d="M436.17,496a14,14,0,0,0-4.31-3.22,12.4,12.4,0,0,0-10.58,0A14,14,0,0,0,417,496a15.66,15.66,0,0,0-2.91,4.77,16.51,16.51,0,0,0,0,11.64,15.32,15.32,0,0,0,2.91,4.75,13.91,13.91,0,0,0,4.31,3.22,12.16,12.16,0,0,0,5.3,1.19,17.49,17.49,0,0,0,2.15-.12,14.49,14.49,0,0,0,1.81-.36,9.09,9.09,0,0,0,1.61-.61c.47-.24,1-.52,1.45-.83a2.28,2.28,0,0,0,.84-.94,2.63,2.63,0,0,0,.25-1.09,2.83,2.83,0,0,0-.6-1.74,2.21,2.21,0,0,0-3-.42,11.56,11.56,0,0,1-1.05.6,5.6,5.6,0,0,1-1,.4,6.77,6.77,0,0,1-1.09.22,13.41,13.41,0,0,1-1.37.07,7.74,7.74,0,0,1-3.09-.64,8.9,8.9,0,0,1-2.64-1.78,9.84,9.84,0,0,1-1.92-2.68,10.44,10.44,0,0,1-.87-2.74h19.88a2.08,2.08,0,0,0,1.64-.72,2.46,2.46,0,0,0,.61-1.69,15.93,15.93,0,0,0-1.1-5.78A15.49,15.49,0,0,0,436.17,496Zm-.71,8.57H417.94a11,11,0,0,1,.85-2.84,9.87,9.87,0,0,1,1.9-2.77,8.94,8.94,0,0,1,2.7-1.87,8.2,8.2,0,0,1,6.5,0,9.2,9.2,0,0,1,2.72,1.84,9.49,9.49,0,0,1,1.95,2.76A10.59,10.59,0,0,1,435.46,504.59Z"/><path class="cls-4" d="M426.6,490.41a3.15,3.15,0,0,0,.82-.14l6.37-3a2.55,2.55,0,0,0,1.31-.91,2.38,2.38,0,0,0,.5-1.48,2.51,2.51,0,0,0-.78-1.85,2.45,2.45,0,0,0-1.76-.75,2.5,2.5,0,0,0-.8.14l-6.33,3.06a2.59,2.59,0,0,0-1.35.92,2.58,2.58,0,0,0,.25,3.32A2.48,2.48,0,0,0,426.6,490.41Z"/><path class="cls-4" d="M473.54,506.26a7.9,7.9,0,0,0-2.51-1.91,7.17,7.17,0,0,0-3.16-.7h-5.58a2.46,2.46,0,0,1-1.17-.28,3.36,3.36,0,0,1-1-.76,3.61,3.61,0,0,1-.68-1.12,3.93,3.93,0,0,1-.24-1.38,3.66,3.66,0,0,1,.24-1.31,3.84,3.84,0,0,1,.67-1.13,3.42,3.42,0,0,1,1-.78,2.49,2.49,0,0,1,1.19-.28h9.78a2.21,2.21,0,0,0,1.64-.7,2.57,2.57,0,0,0,.67-1.84,2.37,2.37,0,0,0-.68-1.79,2.31,2.31,0,0,0-1.63-.64h-9.75a7.1,7.1,0,0,0-3,.67,7.89,7.89,0,0,0-2.44,1.8,8.51,8.51,0,0,0-1.64,2.65,8.67,8.67,0,0,0-.6,3.23,9.52,9.52,0,0,0,.58,3.31A9.2,9.2,0,0,0,456.8,506a7.75,7.75,0,0,0,2.44,1.88,6.9,6.9,0,0,0,3.08.71h5.24a4.1,4.1,0,0,1,1.39.28,3.4,3.4,0,0,1,1.16.71,3.35,3.35,0,0,1,.8,1.13,3.86,3.86,0,0,1,.3,1.57,4,4,0,0,1-1.16,2.9,3.62,3.62,0,0,1-1.16.79,3.23,3.23,0,0,1-1.28.27H456.3a2,2,0,0,0-1.57.71,2.53,2.53,0,0,0-.6,1.73,2.72,2.72,0,0,0,.59,1.79,2,2,0,0,0,1.58.74h11.63a7,7,0,0,0,3.15-.72,7.7,7.7,0,0,0,2.49-1.93,9,9,0,0,0,1.63-2.8,9.73,9.73,0,0,0,.59-3.38,9.62,9.62,0,0,0-.59-3.36A8.91,8.91,0,0,0,473.54,506.26Z"/><path class="cls-4" d="M502.14,481.24a2.12,2.12,0,0,0-1.67.77,2.74,2.74,0,0,0-.61,1.78v12.89a11.8,11.8,0,0,0-2.76-3.17,9.82,9.82,0,0,0-6.21-1.9,12.09,12.09,0,0,0-5.29,1.19,14,14,0,0,0-4.3,3.22,15.1,15.1,0,0,0-2.9,4.77,16,16,0,0,0-1.07,5.86,15.73,15.73,0,0,0,1.07,5.8,15.18,15.18,0,0,0,2.9,4.74,14,14,0,0,0,4.3,3.22,12.38,12.38,0,0,0,10.57,0,13.68,13.68,0,0,0,4.29-3.17,15.17,15.17,0,0,0,2.89-4.69,15.7,15.7,0,0,0,1.09-5.73v-23a2.6,2.6,0,0,0-.65-1.79A2.1,2.1,0,0,0,502.14,481.24Zm-2.28,25.41a10.83,10.83,0,0,1-.7,3.86h0a10.42,10.42,0,0,1-1.91,3.19,8.9,8.9,0,0,1-2.84,2.15,8.32,8.32,0,0,1-7,0,9.05,9.05,0,0,1-2.85-2.15,10.7,10.7,0,0,1-2.65-7.05,10.61,10.61,0,0,1,.72-3.91,10.23,10.23,0,0,1,1.93-3.19,9.3,9.3,0,0,1,2.85-2.13,7.89,7.89,0,0,1,3.48-.78,8.06,8.06,0,0,1,3.52.78,9,9,0,0,1,2.84,2.13,10.18,10.18,0,0,1,1.91,3.19A11,11,0,0,1,499.86,506.65Z"/><path class="cls-4" d="M522.42,491.61h-.21a12.35,12.35,0,0,0-5.46,1.25,14.48,14.48,0,0,0-4.46,3.38,16.51,16.51,0,0,0-4.12,11v11.5a2.5,2.5,0,0,0,.7,1.79,2.25,2.25,0,0,0,1.66.71,2,2,0,0,0,1.6-.73,2.58,2.58,0,0,0,.63-1.77v-11.5a11.35,11.35,0,0,1,.76-4.17,11.19,11.19,0,0,1,2.07-3.4,10,10,0,0,1,3-2.27,8.3,8.3,0,0,1,3.61-.82h.21a2.28,2.28,0,0,0,1.68-.7,2.44,2.44,0,0,0,.68-1.77,2.59,2.59,0,0,0-.62-1.76A2.2,2.2,0,0,0,522.42,491.61Z"/><path class="cls-4" d="M547.88,492.33a2.55,2.55,0,0,0-.66,1.78v13.07a11.37,11.37,0,0,1-.58,3.69,9.56,9.56,0,0,1-1.59,3,7.62,7.62,0,0,1-2.44,2,7.34,7.34,0,0,1-6.34,0,8.33,8.33,0,0,1-2.59-2,9.68,9.68,0,0,1-1.74-3,10.62,10.62,0,0,1-.64-3.68v-13.1a2.54,2.54,0,0,0-.65-1.77,2.2,2.2,0,0,0-3.27,0,2.49,2.49,0,0,0-.66,1.77v13.1a16,16,0,0,0,1,5.58,14.77,14.77,0,0,0,2.67,4.56,12.84,12.84,0,0,0,4,3.1,11.4,11.4,0,0,0,5.07,1.15,10.92,10.92,0,0,0,5-1.14,12.42,12.42,0,0,0,3.91-3.09,14.3,14.3,0,0,0,2.56-4.56,16.59,16.59,0,0,0,.91-5.54V494.11a2.64,2.64,0,0,0-.63-1.78A2.19,2.19,0,0,0,547.88,492.33Z"/><path class="cls-4" d="M577.8,516.36H561.45l17.33-20.61a2.5,2.5,0,0,0,.61-1.55v-.3a2.52,2.52,0,0,0-.73-1.65,2.1,2.1,0,0,0-1.53-.67h-20a2.2,2.2,0,0,0-1.65.73,2.67,2.67,0,0,0,0,3.49,2.14,2.14,0,0,0,1.65.75h15.1L555,517.08a2.7,2.7,0,0,0-.65,1.72,2.4,2.4,0,0,0,.67,1.7,2.2,2.2,0,0,0,1.66.74H577.8a2.21,2.21,0,0,0,1.68-.72,2.53,2.53,0,0,0,.65-1.75,2.37,2.37,0,0,0-.66-1.72A2.25,2.25,0,0,0,577.8,516.36Z"/><path class="cls-4" d="M566.06,489.68a1.61,1.61,0,0,0,.73.53,5,5,0,0,0,.8.19,2.93,2.93,0,0,0,.58-.06,1.68,1.68,0,0,0,.66-.3l7.4-7.37a2.09,2.09,0,0,0,0-3.05,2.08,2.08,0,0,0-3.05,0l-5.53,5.58-5.53-5.59a2.16,2.16,0,0,0-3,0,2.07,2.07,0,0,0-.67,1.55,2.11,2.11,0,0,0,.69,1.51Z"/><path class="cls-4" d="M603.24,496a13.84,13.84,0,0,0-4.32-3.22,12.38,12.38,0,0,0-10.57,0A14,14,0,0,0,584,496a15.47,15.47,0,0,0-2.91,4.77,16.51,16.51,0,0,0,0,11.64,15.14,15.14,0,0,0,2.91,4.75,13.91,13.91,0,0,0,4.31,3.22,12.16,12.16,0,0,0,5.3,1.19,17.49,17.49,0,0,0,2.15-.12,14.86,14.86,0,0,0,1.81-.36,8.7,8.7,0,0,0,1.6-.61c.48-.24,1-.52,1.46-.83a2.34,2.34,0,0,0,.84-.94,2.63,2.63,0,0,0,.25-1.09,2.89,2.89,0,0,0-.6-1.74,2.06,2.06,0,0,0-2.31-.76,2.25,2.25,0,0,0-.72.34,11.45,11.45,0,0,1-1,.6,5.6,5.6,0,0,1-1,.4,6.77,6.77,0,0,1-1.09.22,13.41,13.41,0,0,1-1.37.07,7.74,7.74,0,0,1-3.09-.64,8.78,8.78,0,0,1-2.64-1.78,9.44,9.44,0,0,1-1.92-2.67,10.26,10.26,0,0,1-.87-2.75H605a2.11,2.11,0,0,0,1.64-.72,2.46,2.46,0,0,0,.61-1.69,16.1,16.1,0,0,0-1.1-5.78A15.68,15.68,0,0,0,603.24,496Zm-.72,8.57H585a10.6,10.6,0,0,1,.85-2.84,9.87,9.87,0,0,1,1.9-2.77,9,9,0,0,1,2.69-1.87,8.19,8.19,0,0,1,6.51,0,9.33,9.33,0,0,1,2.72,1.84,9.49,9.49,0,0,1,2,2.76A10.24,10.24,0,0,1,602.52,504.59Z"/><path class="cls-4" d="M631,495.84h0a12.51,12.51,0,0,0-4-3.09,11.67,11.67,0,0,0-10.06,0,12.87,12.87,0,0,0-4,3.1,14.79,14.79,0,0,0-2.65,4.58,16.37,16.37,0,0,0-.95,5.59v12.74a2.41,2.41,0,0,0,.71,1.78,2.27,2.27,0,0,0,1.63.69,2.08,2.08,0,0,0,1.64-.72,2.58,2.58,0,0,0,.6-1.75V506.06a11.1,11.1,0,0,1,.62-3.73,9.09,9.09,0,0,1,1.69-3,8,8,0,0,1,2.56-2,7.4,7.4,0,0,1,6.37,0,8,8,0,0,1,2.54,2,9.63,9.63,0,0,1,1.67,3,11.44,11.44,0,0,1,.6,3.73v12.63a2.46,2.46,0,0,0,.67,1.76,2.18,2.18,0,0,0,1.64.71,2.13,2.13,0,0,0,1.65-.72,2.51,2.51,0,0,0,.63-1.75V506a16.61,16.61,0,0,0-.94-5.59A14.56,14.56,0,0,0,631,495.84Z"/><path class="cls-4" d="M641.26,491.61a2.15,2.15,0,0,0-1.65.75,2.55,2.55,0,0,0-.66,1.78v24.75a2.47,2.47,0,0,0,.66,1.75,2.15,2.15,0,0,0,1.65.75,2.09,2.09,0,0,0,1.62-.75,2.53,2.53,0,0,0,.65-1.75V494.14a2.68,2.68,0,0,0-.61-1.77A2.11,2.11,0,0,0,641.26,491.61Z"/><path class="cls-4" d="M649.73,482.86h0a2.44,2.44,0,0,0-1.75-.75,2.41,2.41,0,0,0-.8.14l-6.33,3.05a2.58,2.58,0,0,0-1.35.93,2.52,2.52,0,0,0,2,4,2.51,2.51,0,0,0,.82-.14l6.37-3a2.55,2.55,0,0,0,1.31-.9,2.39,2.39,0,0,0,.5-1.49A2.51,2.51,0,0,0,649.73,482.86Z"/><rect class="cls-5" width="703.96" height="703.96"/></svg>