<svg id="Vrstva_1" data-name="Vrstva 1" xmlns="http://www.w3.org/2000/svg" viewBox="0 0 448 448"><defs><style>.cls-1{fill:#fff;}</style></defs><path class="cls-1" d="M382.37,65.58c-87.49-87.46-229.32-87.44-316.79,0s-87.44,229.32,0,316.79,229.32,87.44,316.79-.05a224,224,0,0,0-.05-316.79ZM339.24,312l0,0V312l-11.35,11.28a59.74,59.74,0,0,1-56.37,16.13,198.48,198.48,0,0,1-57.65-25.84,266.35,266.35,0,0,1-45.47-36.66,268.93,268.93,0,0,1-34-41.21A209.25,209.25,0,0,1,108.86,184a59.76,59.76,0,0,1,14.94-61l13.29-13.29a9.49,9.49,0,0,1,13.41,0l0,0,42,42a9.49,9.49,0,0,1,0,13.41l0,0-24.64,24.64a20.08,20.08,0,0,0-2.09,26.13,287.82,287.82,0,0,0,29.49,34.42,286.89,286.89,0,0,0,38.83,32.63,20.24,20.24,0,0,0,25.83-2.24l23.82-24.19a9.48,9.48,0,0,1,13.41,0l0,0,42,42.11A9.48,9.48,0,0,1,339.24,312Z" transform="translate(0)"/></svg>