<svg id="Vrstva_1" data-name="Vrstva 1" xmlns="http://www.w3.org/2000/svg" viewBox="0 0 448 448"><defs><style>.cls-1{fill:#fff;}</style></defs><path class="cls-1" d="M166.05,286.12l-.14-.6-.63.09a318.23,318.23,0,0,0-34.94,7.17l-1,.25.59.78a117.6,117.6,0,0,0,49.17,38.37l1.46.61-.58-1.48A311.68,311.68,0,0,1,166.05,286.12Z"/><path class="cls-1" d="M229.23,163.62a378.9,378.9,0,0,0,45.12-2.85l.69-.09-.11-.69a272.39,272.39,0,0,0-11.83-46l-.1-.3-.3-.1a115.59,115.59,0,0,0-33.44-6.51l-.71,0v56.6Z"/><path class="cls-1" d="M172.05,160l.68.09a432.81,432.81,0,0,0,45.8,3.43l.69,0V107l-.7,0a116.47,116.47,0,0,0-34.38,6.81l-.29.11-.11.29a274,274,0,0,0-11.57,45.06Z"/><path class="cls-1" d="M162.18,158.6l.65.1.11-.64a301.58,301.58,0,0,1,8.92-37.62l.46-1.51-1.4.72a118.46,118.46,0,0,0-39.1,32.16l-.65.82,1,.23C138.66,154.38,149.12,156.6,162.18,158.6Z"/><path class="cls-1" d="M175.93,284.21l-.74.09.17.73c3.4,14.71,10,34.88,16.82,51.66A117.74,117.74,0,0,0,218.53,341l.69,0V281.7h-.66A378.21,378.21,0,0,0,175.93,284.21Z"/><path class="cls-1" d="M224,0C100.29,0,0,100.29,0,224S100.29,448,224,448,448,347.71,448,224,347.71,0,224,0ZM101.11,194a127.28,127.28,0,0,1,44.19-68.94,124.91,124.91,0,0,1,78.59-27.48,126.63,126.63,0,0,1,123,97.34l.12.51-6,21.07-1.35-9.27a117.7,117.7,0,0,0-17.1-46.09l-.26-.42-.47.14a331.8,331.8,0,0,1-35.54,7.67l-.65.11.09.65c.94,6.76,1.66,13.81,2.23,21.56l.15,2.14H278.8l-.13-1.86c-.53-7.42-1.21-14.12-2.09-20.47l-.09-.65-.68.08a382.37,382.37,0,0,1-46.6,3h-.66V193h-9.34V173.08h-.65a427.71,427.71,0,0,1-47.35-3.57l-.66-.08-.09.66c-.92,6.65-1.64,13.54-2.19,21.07l-.13,1.85h-9.32l.16-2.14c.57-8,1.32-15.21,2.29-22.11l.09-.64-.65-.1c-15.7-2.45-27.63-5.18-34.88-7l-.45-.12-.26.41a116,116,0,0,0-17,45.55l-1.45,9.7-5.71-22ZM272,198.69,250.61,265H237.38l-9.95-31.12c-1.41-4.48-2.64-8.61-3.75-12.88-1.24,4.71-2.59,9-3.9,13l-10.51,31H196.05l-20-66.3h15.82l8.71,33.44c1.07,4.1,2.1,8.07,3,12,1.07-3.84,2.27-7.75,3.45-11.58l.19-.63,10.63-33.2h12.44l10.1,32.56c1.42,4.58,2.62,8.71,3.64,12.56,1-4.32,2.13-8.56,3.21-12.39l9.3-32.74Zm-192.28,0H95.54l8.73,33.6c1,4.05,2.07,8,3,11.84,1.07-3.88,2.28-7.81,3.46-11.67l.17-.55,10.63-33.2h12.45l10.11,32.56c1.42,4.58,2.61,8.7,3.63,12.55,1-4.34,2.14-8.57,3.21-12.38l9.3-32.73h15.46L154.27,265H141.06l-10-31.12c-1.41-4.48-2.65-8.61-3.76-12.89-1.13,4.31-2.41,8.49-3.89,13v0l-10.5,31H99.71Zm259.62,76.78a126.37,126.37,0,0,1-230.87,0l-1.26-2.82h10.25l.54,1.14a119.24,119.24,0,0,0,5.66,10.67l.27.44.49-.13a329.18,329.18,0,0,1,38.86-8.34l.69-.1-.13-.68c-.69-3.58-1.33-7.23-1.94-11.16l-.07-.47,6.71-20.8,1.09,9.06c.9,7.5,2.07,15,3.47,22.15l.12.62.62-.08a435.73,435.73,0,0,1,45.41-2.81l.14-11.53,4.46-17.48,4.71,17.47v11.57a400.7,400.7,0,0,1,44.51,3.2l.59.07.12-.6c1.43-7.29,2.61-14.76,3.51-22.21l1.15-9.5L285,264.88l-.07.45c-.53,3.46-1.13,7-1.84,10.69l-.14.7.68.1a363,363,0,0,1,39.8,8l.47.12.26-.43a114.71,114.71,0,0,0,5.66-10.68l.54-1.15h10.27ZM347,265H333.74l-10-31.11c-1.4-4.48-2.64-8.61-3.75-12.92-1.14,4.33-2.43,8.51-3.91,13l-10.5,31H292.38l-20-66.3h15.82l8.9,34.22c1,3.84,1.95,7.55,2.8,11.21,1.08-3.9,2.3-7.86,3.5-11.74l.14-.48,10.62-33.2h12.45l10.09,32.56c1.42,4.54,2.61,8.65,3.63,12.53,1-4.33,2.14-8.55,3.21-12.36l8.81-31V198.7h16Z"/><path class="cls-1" d="M271.63,284.83l-.75-.08c-13.94-1.67-27.95-2.67-41.66-3l-.67,0V341l.72,0a116.7,116.7,0,0,0,24.78-3.86c3.36-8.14,12.82-31.88,17.41-51.55Z"/><path class="cls-1" d="M284.12,158.73l.12.65.65-.1c10.66-1.68,21-3.81,30.78-6.35l1-.25-.63-.8a118.08,118.08,0,0,0-40.13-32.74l-1.41-.7.47,1.5A303.94,303.94,0,0,1,284.12,158.73Z"/><path class="cls-1" d="M281.54,286.14l-.63-.09-.14.6a311.47,311.47,0,0,1-14,45l-.46,1.45,1.31-.53A117.47,117.47,0,0,0,317.72,294l.59-.8-1-.24C309.72,291.08,297.34,288.41,281.54,286.14Z"/></svg>